<svg xmlns="http://www.w3.org/2000/svg" viewBox="0 0 64 64" id="online-book-room"><path d="M59,9H5a3.009,3.009,0,0,0-3,3V46a3.009,3.009,0,0,0,3,3H26v4H21a1,1,0,0,0-1,1v6a1,1,0,0,0,1,1H43a1,1,0,0,0,1-1V54a1,1,0,0,0-1-1H38V49H59a3.009,3.009,0,0,0,3-3V12A3.009,3.009,0,0,0,59,9ZM42,55v4H22V55ZM28,53V49h8v4Zm32-7a1,1,0,0,1-1,1H5a1,1,0,0,1-1-1V43H60Zm0-5H4V12a1,1,0,0,1,1-1H59a1,1,0,0,1,1,1Z"></path><path d="M23 14H12a5 5 0 0 0-5 5V38a1 1 0 0 0 1 1h3a1 1 0 0 0 .97-.76L12.78 35h9.44l.81 3.24A1 1 0 0 0 24 39h3a1 1 0 0 0 1-1V19A5 5 0 0 0 23 14zM10.22 37H9V35h1.72zM26 37H24.78l-.5-2H26zm0-4H9V31H26zm0-4H9V28a3.009 3.009 0 0 1 3-3H23a3.009 3.009 0 0 1 3 3zM13 21.5A1.5 1.5 0 0 1 14.5 20h6a1.5 1.5 0 0 1 0 3h-6A1.5 1.5 0 0 1 13 21.5zm13 2.53a4.922 4.922 0 0 0-2.38-.97A3.556 3.556 0 0 0 24 21.5 3.5 3.5 0 0 0 20.5 18h-6A3.5 3.5 0 0 0 11 21.5a3.556 3.556 0 0 0 .38 1.56A4.922 4.922 0 0 0 9 24.03V19a3.009 3.009 0 0 1 3-3H23a3.009 3.009 0 0 1 3 3zM53 33H47V27h4.918V25H46a1 1 0 0 0-1 1v8a1 1 0 0 0 1 1h8a1 1 0 0 0 1-1V31.011H53z"></path><path d="M50.108,29.694l-1.4-1.4-1.414,1.414,2,2a1,1,0,0,0,1.288.107l7-5-1.162-1.628Z"></path><rect width="25" height="2" x="32" y="17"></rect><rect width="25" height="2" x="32" y="21"></rect><rect width="11" height="2" x="32" y="25"></rect><rect width="11" height="2" x="32" y="29"></rect><rect width="8" height="2" x="32" y="33"></rect></svg>