<svg xmlns="http://www.w3.org/2000/svg" fill-rule="evenodd" stroke-linejoin="round" stroke-miterlimit="2" clip-rule="evenodd" viewBox="0 0 96 96" id="check-in"><rect width="96" height="96" fill="none"></rect><path d="M3.5,75.482l0,-69.925c-0,-0.846 0.686,-1.532 1.532,-1.532c-0,0 57.846,0 57.846,0c0.846,0 1.531,0.686 1.531,1.532c0,-0 0,49.839 0,49.839c0,0.828 0.672,1.5 1.5,1.5c0.828,-0 1.5,-0.672 1.5,-1.5l0,-49.839c0,-2.503 -2.029,-4.532 -4.531,-4.532l-57.846,0c-2.503,0 -4.532,2.029 -4.532,4.532c0,12.685 0,61.283 0,70.691c-0,0.857 0.437,1.655 1.159,2.116c0.723,0.461 1.63,0.522 2.408,0.162c1.006,-0.467 2.404,-1.115 3.732,-1.731c2.113,-0.979 4.549,-0.979 6.662,0c0.4,0.186 0.806,0.374 1.206,0.56c2.913,1.35 6.273,1.35 9.185,-0c0.401,-0.186 0.807,-0.374 1.207,-0.56c2.112,-0.979 4.549,-0.979 6.661,0c0.4,0.186 0.807,0.374 1.207,0.56c1.673,0.775 3.492,1.105 5.29,0.99c0.827,-0.053 1.454,-0.766 1.402,-1.592c-0.053,-0.827 -0.767,-1.454 -1.593,-1.402c-1.304,0.084 -2.624,-0.156 -3.837,-0.718c-0.4,-0.185 -0.807,-0.374 -1.207,-0.559c-2.913,-1.351 -6.272,-1.351 -9.185,-0c-0.4,0.185 -0.806,0.374 -1.207,0.559c-2.112,0.98 -4.548,0.98 -6.661,0c-0.4,-0.185 -0.806,-0.374 -1.207,-0.559c-2.912,-1.351 -6.272,-1.351 -9.185,-0l-3.037,1.408Z"></path><path d="M16.922,10.645c0.755,-0.38 1.609,-0.595 2.512,-0.595c3.088,0 5.596,2.508 5.596,5.596c-0,3.088 -2.508,5.596 -5.596,5.596c-3.088,-0 -5.596,-2.508 -5.596,-5.596c0,-0.514 0.069,-1.012 0.199,-1.485c0.22,-0.798 -0.25,-1.624 -1.049,-1.843c-0.798,-0.22 -1.624,0.25 -1.843,1.049c-0.2,0.726 -0.307,1.49 -0.307,2.279c0,4.744 3.852,8.596 8.596,8.596c4.744,-0 8.596,-3.852 8.596,-8.596c-0,-4.744 -3.852,-8.596 -8.596,-8.596c-1.389,0 -2.701,0.331 -3.863,0.917c-0.739,0.372 -1.037,1.275 -0.664,2.014c0.373,0.74 1.276,1.037 2.015,0.664Z"></path><path d="M17.934,22.742l-0,22.171c-0,0.828 0.672,1.5 1.5,1.5c0.828,0 1.5,-0.672 1.5,-1.5l-0,-22.171c-0,-0.828 -0.672,-1.5 -1.5,-1.5c-0.828,-0 -1.5,0.672 -1.5,1.5Z"></path><path d="M19.434 39.904l-6.375 0c-.828 0-1.5.672-1.5 1.5 0 .827.672 1.5 1.5 1.5l6.375 0c.828 0 1.5-.673 1.5-1.5 0-.828-.672-1.5-1.5-1.5zM19.434 34.027l-6.375 0c-.828 0-1.5.672-1.5 1.5 0 .828.672 1.5 1.5 1.5l6.375 0c.828 0 1.5-.672 1.5-1.5 0-.828-.672-1.5-1.5-1.5zM53.159 39.333c-.288 0-.521-.233-.521-.521 0 0 0-3.678 0-3.678 0-1.218-.629-2.349-1.664-2.992-1.035-.642-2.328-.704-3.419-.164-2.214 1.095-5.136 2.542-6.713 3.322-1.2.594-1.959 1.817-1.959 3.156 0 0 0 5.146 0 5.146 0 .288-.234.521-.521.521-.661 0-1.395 0-2.056 0-.934 0-1.83.371-2.49 1.032-.66.66-1.031 1.555-1.031 2.489 0 1.849 0 4.571 0 6.42 0 1.945 1.576 3.521 3.521 3.521l18.909 0c1.944 0 3.521-1.576 3.521-3.521l0-11.21c0-1.944-1.577-3.521-3.521-3.521-.661 0-1.395 0-2.056 0zm0 3l2.056 0c.288 0 .521.234.521.521 0 .001 0 11.21 0 11.21 0 .288-.233.521-.521.521 0 0-18.909 0-18.909 0-.288 0-.521-.233-.521-.521 0-1.849 0-4.571 0-6.42 0-.138.054-.27.152-.368.098-.098.23-.153.369-.153.661 0 1.395 0 2.056 0 1.944 0 3.521-1.576 3.521-3.521l0-5.146c0-.199.112-.379.29-.467 0 0 6.712-3.322 6.712-3.322.162-.08.353-.071.506.024.154.095.247.263.247.443l0 3.678c0 1.945 1.576 3.521 3.521 3.521zM11.566 57.585l11.163 0c.828 0 1.5-.672 1.5-1.5 0-.828-.672-1.5-1.5-1.5l-11.163 0c-.828 0-1.5.672-1.5 1.5 0 .828.672 1.5 1.5 1.5zM11.566 66.971l22.389 0c.828 0 1.5-.672 1.5-1.5 0-.827-.672-1.5-1.5-1.5l-22.389 0c-.828 0-1.5.673-1.5 1.5 0 .828.672 1.5 1.5 1.5zM34.051 18.49c0 0 2.946 2.947 4.78 4.78.66.661 1.556 1.032 2.49 1.032.934 0 1.829-.371 2.489-1.032 3.764-3.763 13.66-13.659 13.66-13.659.585-.585.585-1.536 0-2.121-.586-.586-1.536-.586-2.121 0 0 0-9.896 9.896-13.66 13.659-.098.098-.23.153-.368.153-.139 0-.271-.055-.369-.153l-4.78-4.78c-.585-.586-1.536-.586-2.121 0-.586.585-.586 1.536 0 2.121zM60.272 62.64l11.274 0c.828 0 1.5-.672 1.5-1.5 0-.828-.672-1.5-1.5-1.5l-11.274 0c-.828 0-1.5.672-1.5 1.5 0 .828.672 1.5 1.5 1.5z"></path><path d="M64.409,61.14l0,8.607c0,0.828 0.672,1.5 1.5,1.5c0.828,-0 1.5,-0.672 1.5,-1.5l0,-8.607c0,-0.828 -0.672,-1.5 -1.5,-1.5c-0.828,0 -1.5,0.672 -1.5,1.5Z"></path><path d="M40.823,94.975c10.601,-0 39.575,-0 50.176,-0.027c1.453,-0 2.819,-0.704 3.664,-1.89c0.846,-1.185 1.066,-2.707 0.591,-4.083c-0.002,-0.005 -0.003,-0.009 -0.005,-0.013c-4.287,-12.067 -15.811,-20.717 -29.34,-20.717c-13.527,0 -25.051,8.648 -29.364,20.705c-0.002,0.005 -0.004,0.01 -0.006,0.016c-0.478,1.385 -0.257,2.915 0.594,4.108c0.851,1.193 2.225,1.901 3.69,1.901l0,-0Zm0,-3c0,-0 0,-0 0,-0c-0.495,-0 -0.96,-0.239 -1.247,-0.643c-0.285,-0.399 -0.361,-0.911 -0.205,-1.376c3.904,-10.898 14.316,-18.711 26.538,-18.711c12.222,0 22.634,7.812 26.51,18.712c0.157,0.459 0.083,0.965 -0.199,1.36c-0.282,0.396 -0.738,0.631 -1.225,0.631c-0.001,-0 -0.002,-0 -0.003,-0c-10.6,0.027 -39.569,0.027 -50.169,0.027Z"></path><path d="M51.219,87.565l41.163,0c0.828,0 1.5,-0.672 1.5,-1.5c0,-0.827 -0.672,-1.5 -1.5,-1.5l-41.163,0c-0.828,0 -1.5,0.673 -1.5,1.5c-0,0.828 0.672,1.5 1.5,1.5Zm-11.783,0l6.324,0c0.828,0 1.5,-0.672 1.5,-1.5c0,-0.827 -0.672,-1.5 -1.5,-1.5l-6.324,0c-0.828,0 -1.5,0.673 -1.5,1.5c0,0.828 0.672,1.5 1.5,1.5Z"></path></svg>