<svg width="18" height="19" viewBox="0 0 18 19" fill="none" xmlns="http://www.w3.org/2000/svg">
<path fill-rule="evenodd" clip-rule="evenodd" d="M7.8355 0.399992C8.26804 0.138016 8.76406 -0.000488281 9.26975 -0.000488281C9.77544 -0.000488281 10.2715 0.138016 10.704 0.399992L11.7225 1.02299C13.1515 1.89649 14.779 2.09099 16.414 2.28699C16.9425 2.35049 17.4715 2.41349 17.995 2.49999C17.995 2.49999 18.0065 3.41699 17.9945 3.83299L17.89 7.40849C17.8 10.475 16.4365 13.3825 14.0975 15.4955C12.994 16.492 11.8525 17.3925 10.541 18.1405C10.1545 18.3591 9.72115 18.4818 9.2774 18.498C8.83364 18.5143 8.39247 18.4238 7.991 18.234C6.4765 17.514 5.1355 16.601 3.911 15.4955C1.572 13.3825 0.208501 10.475 0.119001 7.40849L0.0150007 3.84449C0.00250075 3.42249 0.0150007 2.49999 0.0150007 2.49999C0.440001 2.44999 0.873001 2.40849 1.3095 2.36699C3.236 2.18399 5.2265 1.99499 6.8595 0.996992L7.8355 0.399992ZM8 7.99999V4.49999H10V7.99999H13.5V9.99999H10V13.5H8V9.99999H4.5V7.99999H8Z" fill="#E57700"/>
</svg>
