<svg width="301" height="300" viewBox="0 0 301 300" fill="none" xmlns="http://www.w3.org/2000/svg">
<g clip-path="url(#clip0_203_1226)">
<path d="M280.07 299.659V267.158C280.07 267.158 291.117 290.2 280.07 299.659Z" fill="#F1F1F1"/>
<path d="M280.752 299.653L259.871 277.674C259.871 277.674 282.145 283.926 280.752 299.653Z" fill="#F1F1F1"/>
<path d="M117 57.7459H115.711V21.1694C115.711 15.555 113.557 10.1704 109.724 6.20039C105.89 2.23035 100.691 3.56778e-06 95.2692 0H20.4416C17.7572 -6.47732e-06 15.099 0.54755 12.6189 1.61141C10.1389 2.67527 7.88539 4.2346 5.98722 6.20036C4.08904 8.16611 2.58332 10.4998 1.55603 13.0682C0.528746 15.6366 4.54884e-06 18.3894 0 21.1694V221.831C-4.59339e-06 227.445 2.15365 232.83 5.98718 236.8C9.82071 240.77 15.0201 243 20.4415 243H95.2691C100.691 243 105.89 240.77 109.723 236.8C113.557 232.83 115.711 227.445 115.711 221.831V83.7816H117V57.7459Z" fill="#3F3D56"/>
<path d="M94.9827 6.00001H85.374C85.8159 7.14055 85.9846 8.37798 85.8652 9.60331C85.7458 10.8286 85.342 12.0043 84.6894 13.0266C84.0368 14.0489 83.1554 14.8866 82.1229 15.4659C81.0903 16.0451 79.9383 16.3481 78.7683 16.3482H36.5976C35.4276 16.3481 34.2756 16.0451 33.243 15.4659C32.2104 14.8866 31.329 14.0489 30.6764 13.0266C30.0238 12.0043 29.62 10.8286 29.5007 9.60331C29.3813 8.37798 29.5499 7.14053 29.9918 6H21.0173C19.0452 6 17.0924 6.40894 15.2704 7.20347C13.4485 7.998 11.793 9.16255 10.3985 10.6307C9.00399 12.0988 7.89782 13.8417 7.14313 15.7598C6.38844 17.678 6 19.7339 6 21.8101V222.19C6 224.266 6.38843 226.322 7.14311 228.24C7.8978 230.158 9.00397 231.901 10.3985 233.369C11.7929 234.837 13.4484 236.002 15.2704 236.797C17.0924 237.591 19.0452 238 21.0173 238H94.9827C98.9655 238 102.785 236.334 105.602 233.369C108.418 230.404 110 226.383 110 222.19V21.8101C110 19.7339 109.612 17.678 108.857 15.7599C108.102 13.8417 106.996 12.0988 105.602 10.6307C104.207 9.16258 102.552 7.99801 100.73 7.20348C98.9076 6.40895 96.9548 6.00001 94.9827 6.00001Z" fill="white"/>
<path d="M59 149C78.33 149 94 133.33 94 114C94 94.67 78.33 79 59 79C39.67 79 24 94.67 24 114C24 133.33 39.67 149 59 149Z" fill="#E57700"/>
<path d="M68.8026 116.415L60.5738 126.133C60.3947 126.34 60.1807 126.502 59.9449 126.611C59.7091 126.72 59.4564 126.773 59.2023 126.766H59.1749C58.9202 126.773 58.667 126.72 58.4306 126.611C58.1942 126.502 57.9795 126.339 57.7994 126.133L49.5746 116.415C49.5473 116.379 49.5159 116.348 49.4883 116.316C49.1601 115.912 48.9849 115.376 49.001 114.824C49.0172 114.273 49.2235 113.751 49.5746 113.373C49.9502 112.969 50.4463 112.743 50.9618 112.743C51.4773 112.743 51.9733 112.969 52.3489 113.373L57.2235 119.214V104.154C57.2462 103.574 57.4632 103.026 57.8292 102.625C58.1953 102.224 58.6822 102 59.1886 102C59.6951 102 60.182 102.224 60.548 102.625C60.9141 103.026 61.131 103.574 61.1537 104.154V119.214L66.0245 113.373C66.4008 112.969 66.8975 112.743 67.4135 112.743C67.9296 112.743 68.4263 112.969 68.8026 113.373C68.8302 113.405 68.8575 113.436 68.8889 113.472C69.2163 113.876 69.3909 114.413 69.3748 114.964C69.3586 115.515 69.1529 116.037 68.8026 116.415Z" fill="white"/>
<path d="M231.792 293.502L226.988 293.502L224.703 272.256L231.793 272.257L231.792 293.502Z" fill="#9F616A"/>
<path d="M233.018 298.841L217.527 298.841V298.616C217.528 296.783 218.163 295.024 219.293 293.728C220.424 292.432 221.958 291.703 223.557 291.703L233.018 291.704L233.018 298.841Z" fill="#2F2E41"/>
<path d="M195.297 293.321L190.656 291.898L193.234 270.697L200.084 272.796L195.297 293.321Z" fill="#9F616A"/>
<path d="M195.277 298.841L180.313 294.253L180.364 294.036C180.777 292.265 181.787 290.755 183.171 289.837C184.555 288.92 186.201 288.67 187.746 289.144L196.886 291.946L195.277 298.841Z" fill="#2F2E41"/>
<path d="M234.556 174.439L238.58 179.799L233.376 288.722H222.26L216.655 204.91L199.278 290.97L187.722 287.72L198.23 178.413L234.556 174.439Z" fill="#00A7E1"/>
<path d="M200.916 104.117L211.984 97.7515L229.005 98.0946L243.652 106.688L235.319 154.407L238.919 179.288C225.005 183.356 210.438 183.493 196.468 179.688L196.356 179.658C196.356 179.658 204.63 146 201.107 135.728L200.916 104.117Z" fill="#CBCBCB"/>
<path d="M232.936 78.6841C232.924 74.8755 231.594 71.2281 229.239 68.5424C226.883 65.8568 223.695 64.3524 220.373 64.3595C217.051 64.3665 213.868 65.8844 211.521 68.58C209.174 71.2756 207.856 74.9286 207.856 78.7373C207.856 82.5459 209.174 86.1989 211.521 88.8945C213.868 91.5901 217.051 93.108 220.373 93.1151C223.695 93.1221 226.883 91.6177 229.239 88.9321C231.594 86.2465 232.924 82.5991 232.936 78.7905C232.936 78.755 232.936 78.7195 232.936 78.6841Z" fill="#9F616A"/>
<path d="M214.781 70.4686C215.43 69.7676 216.286 69.3719 217.178 69.3599C218.518 69.31 220.525 69.8555 221.379 71.1043C222.066 72.1079 222.099 73.4888 222.101 74.7643L222.109 78.2848C222.111 79.3263 222.122 80.4122 222.535 81.3401C222.947 82.2679 223.895 82.9726 224.76 82.6563C225.787 82.2811 226.238 80.7166 227.288 80.4352C228.076 80.224 228.885 80.8842 229.229 81.7238C229.52 82.5942 229.617 83.5341 229.51 84.4581C229.411 86.3015 227.105 87.0327 226.778 88.8413C226.589 89.8874 225.928 91.9743 226.778 91.5369C230.697 91.0876 232.417 88.4635 234.21 85.9932L238.255 80.4218C238.717 79.8686 239.072 79.21 239.297 78.4888C239.397 77.9836 239.433 77.4645 239.404 76.9475C239.382 75.5627 239.349 74.1783 239.305 72.7943C239.267 71.585 239.002 70.0593 237.969 69.8107C237.432 69.6815 236.721 69.9069 236.437 69.3683C236.33 69.0983 236.313 68.7932 236.388 68.5097C236.616 67.1276 237.001 65.682 236.604 64.351C236.006 62.3436 233.946 61.5199 232.125 61.1411C230.305 60.7624 228.261 60.4366 227.118 58.7681C226.812 58.2141 226.48 57.6794 226.124 57.1664C225.6 56.62 224.956 56.2476 224.261 56.089C222.001 55.4333 219.614 55.6762 217.49 56.7781C216.609 57.2388 215.725 57.8593 214.759 57.7891C213.755 57.7161 212.898 56.9064 211.907 56.7095C210.307 56.3913 208.777 57.7658 207.989 59.3937C207.012 61.4107 206.922 64.173 208.302 65.8519C208.991 66.6895 210.018 67.2649 210.304 68.3683C210.421 68.8174 210.394 69.3012 210.497 69.7546C210.617 70.206 210.845 70.6093 211.157 70.918C211.468 71.2267 211.849 71.4283 212.256 71.4994C213.234 71.6822 214.062 71.1682 214.781 70.4686Z" fill="#2F2E41"/>
<path d="M199.389 138.909C199.627 139.61 199.996 140.243 200.471 140.763C200.946 141.284 201.514 141.678 202.136 141.919C202.758 142.16 203.419 142.242 204.071 142.159C204.724 142.075 205.352 141.829 205.913 141.437L228.387 155.058L229.115 148.781L207.277 134.017C206.64 132.98 205.694 132.248 204.618 131.959C203.541 131.669 202.41 131.842 201.438 132.445C200.465 133.048 199.72 134.039 199.342 135.231C198.964 136.422 198.981 137.73 199.389 138.909Z" fill="#9F616A"/>
<path d="M229.337 139.994C228.971 140.619 228.49 141.144 227.927 141.532C227.365 141.921 226.735 142.163 226.082 142.242C225.429 142.321 224.769 142.235 224.148 141.99C223.527 141.745 222.961 141.347 222.488 140.824L197.96 148.477L198.173 140.508L222.573 133.241C223.393 132.39 224.456 131.913 225.561 131.901C226.666 131.888 227.738 132.341 228.571 133.173C229.405 134.006 229.943 135.16 230.085 136.417C230.226 137.674 229.96 138.947 229.337 139.994Z" fill="#9F616A"/>
<path d="M238.87 107.032L243.652 106.688C243.652 106.688 249.252 115.159 246.146 124.352C246.146 124.352 246.684 157.373 234.282 156.016C221.88 154.66 217.962 154.66 217.962 154.66L221.684 142.754L230.012 139.806C230.012 139.806 227.445 126.825 232.304 121.423L238.87 107.032Z" fill="#CBCBCB"/>
<path d="M204.335 106.741L203.659 102.769C203.659 102.769 193.691 102.5 191.72 119.819C191.72 119.819 182.755 145.739 191.542 149.076C200.328 152.414 209.994 149.076 209.994 149.076L209.266 137.646L199.598 135.384C199.598 135.384 204.592 127.975 201.872 121.55L204.335 106.741Z" fill="#CBCBCB"/>
<path d="M300.108 300H150.813C150.709 300 150.61 299.953 150.536 299.868C150.463 299.784 150.422 299.67 150.422 299.551C150.422 299.432 150.463 299.317 150.536 299.233C150.61 299.149 150.709 299.101 150.813 299.101H300.108C300.212 299.101 300.312 299.149 300.385 299.233C300.459 299.317 300.5 299.432 300.5 299.551C300.5 299.67 300.459 299.784 300.385 299.868C300.312 299.953 300.212 300 300.108 300Z" fill="#CBCBCB"/>
</g>
<defs>
<clipPath id="clip0_203_1226">
<rect width="300" height="300" fill="white" transform="translate(0.5)"/>
</clipPath>
</defs>
</svg>
