<svg width="301" height="300" viewBox="0 0 301 300" fill="none" xmlns="http://www.w3.org/2000/svg">
<g clip-path="url(#clip0_203_1301)">
<path d="M258.319 247.88C253.257 264.565 246.747 281.214 238.408 297.06C238.223 297.416 238.035 297.766 237.847 298.122L217.2 290.771C217.319 290.435 217.449 290.058 217.589 289.648C225.916 265.412 276.158 117.75 273.903 88.636C274.146 91.0191 282.006 169.885 258.319 247.88Z" fill="#E6E6E6"/>
<path d="M242.391 298.478C242.11 298.8 241.822 299.121 241.532 299.434L226.044 293.92C226.253 293.635 226.497 293.299 226.778 292.919C231.365 286.615 245.002 267.74 258.319 247.88C272.63 226.538 286.573 204.062 288.527 194.827C288.135 196.927 275.913 260.857 242.391 298.478Z" fill="#E6E6E6"/>
<path d="M250.133 52.6135C250.127 52.6135 250.122 52.6154 250.116 52.6156V15.2523C250.116 11.2071 248.688 7.32765 246.146 4.46729C243.605 1.60693 240.157 0 236.563 0H132.618C129.024 0 125.577 1.60693 123.035 4.46729C120.493 7.32765 119.065 11.2071 119.065 15.2523V34.4067C118.778 34.4136 118.505 34.5466 118.304 34.7774C118.103 35.0081 117.991 35.3182 117.99 35.6412V45.1285C117.991 45.4515 118.103 45.7616 118.304 45.9923C118.505 46.223 118.778 46.356 119.065 46.3628V56.3018H119.01C118.866 56.3017 118.723 56.3337 118.589 56.3959C118.456 56.4581 118.335 56.5492 118.233 56.6641C118.131 56.779 118.05 56.9154 117.994 57.0655C117.939 57.2156 117.911 57.3765 117.911 57.5389V75.8852C117.911 76.0477 117.939 76.2085 117.994 76.3586C118.05 76.5087 118.131 76.6451 118.233 76.76C118.335 76.8749 118.456 76.966 118.589 77.0282C118.723 77.0904 118.866 77.1224 119.01 77.1224H119.065V84.4089H119.048C118.904 84.4089 118.761 84.4409 118.627 84.5031C118.494 84.5652 118.373 84.6564 118.271 84.7713C118.169 84.8861 118.088 85.0225 118.032 85.1726C117.977 85.3227 117.949 85.4836 117.949 85.6461V104.172C117.949 104.334 117.977 104.495 118.032 104.645C118.088 104.795 118.169 104.932 118.271 105.047C118.373 105.161 118.494 105.253 118.627 105.315C118.761 105.377 118.904 105.409 119.048 105.409H119.065V284.482C119.065 288.527 120.493 292.406 123.035 295.267C125.577 298.127 129.024 299.734 132.618 299.734H236.563C240.157 299.734 243.605 298.127 246.146 295.267C248.688 292.406 250.116 288.527 250.116 284.482V88.9454C250.122 88.9454 250.127 88.9473 250.133 88.9473C250.39 88.9473 250.645 88.8903 250.882 88.7796C251.12 88.6689 251.335 88.5066 251.517 88.3021C251.699 88.0975 251.843 87.8547 251.942 87.5874C252.04 87.3201 252.091 87.0336 252.091 86.7443V54.8166C252.091 54.2323 251.884 53.672 251.517 53.2588C251.15 52.8457 250.652 52.6135 250.133 52.6135Z" fill="#3F3D56"/>
<path d="M242.023 19.5216V280.208C242.022 283.314 240.925 286.293 238.973 288.488C237.021 290.684 234.374 291.918 231.615 291.918H137.566C134.806 291.918 132.16 290.684 130.208 288.488C128.256 286.293 127.159 283.314 127.158 280.208V19.5216C127.158 16.4149 128.254 13.4355 130.206 11.2387C132.158 9.04193 134.806 7.8078 137.566 7.8078H151.64V9.86338C151.641 12.4212 152.544 14.8738 154.151 16.6825C155.758 18.4911 157.938 19.5077 160.211 19.5088H208.059C210.329 19.5031 212.504 18.4844 214.107 16.6762C215.71 14.8679 216.611 12.4178 216.611 9.86338V7.82917H231.615C234.372 7.82916 237.017 9.06036 238.968 11.2525C240.92 13.4446 242.018 16.4186 242.023 19.5216Z" fill="white"/>
<path d="M89.5168 146.276C88.9607 146.034 88.3641 145.931 87.769 145.977C87.174 146.022 86.595 146.213 86.0728 146.537C85.5506 146.862 85.098 147.311 84.7468 147.853C84.3955 148.396 84.1542 149.018 84.0399 149.677L50.5256 170.185L56.4182 177.648L87.5423 155.17C88.5383 155.313 89.5463 155.039 90.3752 154.402C91.2042 153.764 91.7965 152.806 92.0398 151.71C92.2832 150.614 92.1608 149.455 91.6958 148.453C91.2308 147.452 90.4555 146.677 89.5168 146.276Z" fill="#FFB8B8"/>
<path d="M80.9695 293.829L85.1456 290.789L76.7141 271.215L70.5504 275.701L80.9695 293.829Z" fill="#FFB8B8"/>
<path d="M95.7079 289.29L82.5828 298.844L79.3027 293.137L87.5464 287.137C88.841 286.194 90.4153 285.869 91.9228 286.233C93.4304 286.597 94.7478 287.62 95.5852 289.077L95.7079 289.29Z" fill="#2F2E41"/>
<path d="M34.1118 294.536H39.0854L41.4523 272.947H34.1118V294.536Z" fill="#FFB8B8"/>
<path d="M48.6775 299.733H33.0461V292.936H42.8639C43.6273 292.936 44.3833 293.106 45.0887 293.434C45.794 293.763 46.4349 294.245 46.9747 294.853C47.5146 295.46 47.9428 296.181 48.235 296.975C48.5271 297.769 48.6775 298.62 48.6775 299.479V299.733Z" fill="#2F2E41"/>
<path d="M148.222 42.3048H137.968C137.717 42.3048 137.475 42.1922 137.297 41.9919C137.119 41.7915 137.019 41.5198 137.019 41.2364C137.019 40.9531 137.119 40.6813 137.297 40.4809C137.475 40.2806 137.717 40.168 137.968 40.168H148.222C148.473 40.168 148.715 40.2806 148.893 40.4809C149.071 40.6813 149.171 40.9531 149.171 41.2364C149.171 41.5198 149.071 41.7915 148.893 41.9919C148.715 42.1922 148.473 42.3048 148.222 42.3048Z" fill="#3F3D56"/>
<path d="M148.222 45.2963H137.968C137.717 45.2963 137.475 45.1838 137.297 44.9834C137.119 44.783 137.019 44.5113 137.019 44.2279C137.019 43.9446 137.119 43.6728 137.297 43.4725C137.475 43.2721 137.717 43.1595 137.968 43.1595H148.222C148.473 43.1595 148.715 43.2721 148.893 43.4725C149.071 43.6728 149.171 43.9446 149.171 44.2279C149.171 44.5113 149.071 44.783 148.893 44.9834C148.715 45.1838 148.473 45.2963 148.222 45.2963Z" fill="#3F3D56"/>
<path d="M148.222 48.2878H137.968C137.717 48.2878 137.475 48.1752 137.297 47.9749C137.119 47.7745 137.019 47.5027 137.019 47.2194C137.019 46.936 137.119 46.6643 137.297 46.4639C137.475 46.2636 137.717 46.151 137.968 46.151H148.222C148.473 46.151 148.715 46.2636 148.893 46.4639C149.071 46.6643 149.171 46.936 149.171 47.2194C149.171 47.5027 149.071 47.7745 148.893 47.9749C148.715 48.1752 148.473 48.2878 148.222 48.2878Z" fill="#3F3D56"/>
<path d="M227.699 45.3177H227.354L227.221 45.1937C227.657 44.6082 227.897 43.8683 227.897 43.104C227.894 42.4751 227.725 41.8614 227.412 41.3405C227.099 40.8195 226.656 40.4146 226.139 40.1771C225.621 39.9396 225.053 39.8801 224.505 40.0061C223.958 40.1321 223.456 40.4379 223.063 40.885C222.67 41.332 222.404 41.9002 222.298 42.5176C222.192 43.135 222.251 43.7739 222.467 44.3536C222.684 44.9333 223.048 45.4277 223.514 45.7742C223.981 46.1208 224.528 46.304 225.087 46.3006C225.764 46.2952 226.419 46.0264 226.94 45.5399L227.069 45.6638V46.057L229.249 48.5143L229.902 47.7792L227.699 45.3177ZM225.087 45.3177C224.698 45.3194 224.317 45.1912 223.993 44.9494C223.668 44.7075 223.415 44.3629 223.265 43.959C223.114 43.5552 223.074 43.1103 223.148 42.6805C223.223 42.2508 223.409 41.8555 223.683 41.5447C223.957 41.2339 224.307 41.0216 224.688 40.9345C225.069 40.8474 225.465 40.8895 225.825 41.0555C226.185 41.2215 226.493 41.5039 226.71 41.867C226.928 42.2301 227.045 42.6576 227.046 43.0954L227.046 43.104C227.048 43.393 226.999 43.6795 226.902 43.9472C226.805 44.2148 226.662 44.4584 226.481 44.664C226.301 44.8695 226.086 45.0331 225.849 45.1452C225.613 45.2574 225.359 45.316 225.102 45.3176C225.097 45.3177 225.092 45.3177 225.087 45.3177Z" fill="#3F3D56"/>
<path d="M169.11 81.6215H150.69C149.582 81.6215 148.52 81.1262 147.736 80.2446C146.953 79.363 146.513 78.1673 146.513 76.9206C146.513 75.6738 146.953 74.4781 147.736 73.5965C148.52 72.7149 149.582 72.2197 150.69 72.2197H169.11C170.218 72.2197 171.28 72.7149 172.063 73.5965C172.847 74.4781 173.287 75.6738 173.287 76.9206C173.287 78.1673 172.847 79.363 172.063 80.2446C171.28 81.1262 170.218 81.6215 169.11 81.6215Z" fill="#E57700"/>
<path d="M225.5 91.878H148.791C148.187 91.878 147.607 91.6079 147.18 91.127C146.753 90.6461 146.513 89.9939 146.513 89.3139C146.513 88.6338 146.753 87.9816 147.18 87.5008C147.607 87.0199 148.187 86.7498 148.791 86.7498H225.5C226.104 86.7498 226.684 87.0199 227.111 87.5008C227.538 87.9816 227.779 88.6338 227.779 89.3139C227.779 89.9939 227.538 90.6461 227.111 91.127C226.684 91.6079 226.104 91.878 225.5 91.878Z" fill="#E6E6E6"/>
<path d="M176.968 102.135H148.791C148.187 102.135 147.607 101.864 147.18 101.384C146.753 100.903 146.513 100.25 146.513 99.5704C146.513 98.8904 146.753 98.2382 147.18 97.7573C147.607 97.2764 148.187 97.0063 148.791 97.0063H176.968C177.573 97.0063 178.152 97.2764 178.58 97.7573C179.007 98.2382 179.247 98.8904 179.247 99.5704C179.247 100.25 179.007 100.903 178.58 101.384C178.152 101.864 177.573 102.135 176.968 102.135Z" fill="#E6E6E6"/>
<path d="M169.11 195.298H150.69C149.582 195.298 148.52 194.803 147.736 193.921C146.953 193.04 146.513 191.844 146.513 190.597C146.513 189.35 146.953 188.155 147.736 187.273C148.52 186.391 149.582 185.896 150.69 185.896H169.11C170.218 185.896 171.28 186.391 172.063 187.273C172.847 188.155 173.287 189.35 173.287 190.597C173.287 191.844 172.847 193.04 172.063 193.921C171.28 194.803 170.218 195.298 169.11 195.298Z" fill="#E57700"/>
<path d="M225.5 205.555H148.791C148.187 205.555 147.607 205.284 147.18 204.804C146.753 204.323 146.513 203.67 146.513 202.99C146.513 202.31 146.753 201.658 147.18 201.177C147.607 200.696 148.187 200.426 148.791 200.426H225.5C226.104 200.426 226.684 200.696 227.111 201.177C227.538 201.658 227.779 202.31 227.779 202.99C227.779 203.67 227.538 204.323 227.111 204.804C226.684 205.284 226.104 205.555 225.5 205.555Z" fill="#E6E6E6"/>
<path d="M176.968 215.811H148.791C148.187 215.811 147.607 215.541 147.18 215.06C146.753 214.579 146.513 213.927 146.513 213.247C146.513 212.567 146.753 211.915 147.18 211.434C147.607 210.953 148.187 210.683 148.791 210.683H176.968C177.573 210.683 178.152 210.953 178.58 211.434C179.007 211.915 179.247 212.567 179.247 213.247C179.247 213.927 179.007 214.579 178.58 215.06C178.152 215.541 177.573 215.811 176.968 215.811Z" fill="#E6E6E6"/>
<path d="M169.11 247.863H150.69C149.582 247.863 148.52 247.367 147.736 246.486C146.953 245.604 146.513 244.409 146.513 243.162C146.513 241.915 146.953 240.719 147.736 239.838C148.52 238.956 149.582 238.461 150.69 238.461H169.11C170.218 238.461 171.28 238.956 172.063 239.838C172.847 240.719 173.287 241.915 173.287 243.162C173.287 244.409 172.847 245.604 172.063 246.486C171.28 247.367 170.218 247.863 169.11 247.863Z" fill="#E57700"/>
<path d="M225.5 258.119H148.791C148.187 258.119 147.607 257.849 147.18 257.368C146.753 256.887 146.513 256.235 146.513 255.555C146.513 254.875 146.753 254.223 147.18 253.742C147.607 253.261 148.187 252.991 148.791 252.991H225.5C226.104 252.991 226.684 253.261 227.111 253.742C227.538 254.223 227.779 254.875 227.779 255.555C227.779 256.235 227.538 256.887 227.111 257.368C226.684 257.849 226.104 258.119 225.5 258.119Z" fill="#E6E6E6"/>
<path d="M176.968 268.376H148.791C148.187 268.376 147.607 268.106 147.18 267.625C146.753 267.144 146.513 266.492 146.513 265.812C146.513 265.132 146.753 264.479 147.18 263.998C147.607 263.518 148.187 263.247 148.791 263.247H176.968C177.573 263.247 178.152 263.518 178.58 263.998C179.007 264.479 179.247 265.132 179.247 265.812C179.247 266.492 179.007 267.144 178.58 267.625C178.152 268.106 177.573 268.376 176.968 268.376Z" fill="#E6E6E6"/>
<path d="M236.323 168.588H89.7405C88.8848 168.587 88.0643 168.204 87.4592 167.523C86.8541 166.842 86.5137 165.919 86.5127 164.956V120.083C86.5137 119.12 86.854 118.197 87.4592 117.516C88.0643 116.835 88.8848 116.452 89.7405 116.451H236.323C237.179 116.452 237.999 116.835 238.604 117.516C239.209 118.197 239.55 119.12 239.551 120.083V164.956C239.55 165.919 239.209 166.842 238.604 167.523C237.999 168.204 237.179 168.587 236.323 168.588Z" fill="#00A7E1"/>
<path d="M37.0437 221.973C38.445 233.038 31.0247 282.055 31.8488 282.051L42.5045 281.987C42.8842 281.166 47.7753 254.717 49.3095 250.474C51.4513 244.585 53.612 238.623 54.4551 232.333C55.2488 226.426 54.8576 220.409 54.3412 214.465C54.3652 214.288 54.3515 214.107 54.3012 213.938C54.2509 213.768 54.1655 213.614 54.052 213.489C53.9385 213.364 53.8001 213.271 53.6484 213.217C53.4966 213.164 53.3358 213.152 53.1791 213.183L38.8817 212.354C35.9348 212.183 35.2361 211.456 35.6842 214.713C35.9956 217.144 36.7323 219.512 37.0437 221.973Z" fill="#2F2E41"/>
<path d="M39.8537 195.072C36.9487 199.772 33.9031 205.183 34.8677 210.811C35.6006 215.085 38.4942 218.397 41.2246 221.495C52.1385 233.828 73.6588 288.248 73.6588 288.248C84.0443 280.769 73.4114 288.461 83.9499 280.555C83.0158 280.474 61.7917 194.614 60.0335 194.499C52.9208 193.969 46.7841 193.187 39.8537 195.072Z" fill="#2F2E41"/>
<path d="M51.3443 150.328C49.8687 148.847 39.4991 144.28 39.4991 144.28C39.3084 144.252 39.115 144.258 38.9262 144.299C38.336 144.467 38.0668 145.292 38.1928 145.96C38.3189 146.627 37.2847 157.594 37.0183 162.581C36.5514 171.285 41.1061 191.002 41.0661 191.605C40.91 193.755 40.0734 195.77 38.7085 197.285C39.0632 197.781 61.5939 198.774 63.1265 199.361C63.4359 198.919 61.3819 167.646 61.2874 165.879C61.1298 163.197 53.2922 152.359 51.3443 150.328Z" fill="#E6E6E6"/>
<path d="M35.2745 218.186C35.8084 217.887 36.2776 217.46 36.6489 216.935C37.0203 216.41 37.2849 215.8 37.424 215.147C37.5631 214.494 37.5733 213.815 37.454 213.158C37.3346 212.5 37.0886 211.88 36.7333 211.341L46.2395 152.135L37.3686 152.004L30.767 210.55C30.002 211.282 29.502 212.304 29.3619 213.423C29.2218 214.542 29.4513 215.68 30.0069 216.621C30.5625 217.563 31.4056 218.242 32.3764 218.53C33.3473 218.819 34.3784 218.696 35.2745 218.186Z" fill="#FFB8B8"/>
<path d="M35.1981 156.528C34.8282 156.559 34.4597 156.45 34.15 156.221C33.6222 155.712 37.9285 147.93 38.7791 147.815C41.5475 147.456 44.3956 147.336 47.0804 148.178C49.7652 149.02 52.2905 150.934 53.4905 153.768C53.9918 154.947 50.3576 160.883 48.7057 160.011C46.7272 158.969 37.8032 156.601 35.1981 156.528Z" fill="#E6E6E6"/>
<path d="M44.9691 143.642C50.4721 143.642 54.9332 138.622 54.9332 132.429C54.9332 126.236 50.4721 121.216 44.9691 121.216C39.4661 121.216 35.005 126.236 35.005 132.429C35.005 138.622 39.4661 143.642 44.9691 143.642Z" fill="#FFB8B8"/>
<path d="M35.1823 150.969C36.5669 151.132 37.9658 150.902 39.2509 150.299C40.536 149.697 41.6663 148.741 42.5384 147.52C43.4106 146.298 43.9966 144.851 44.243 143.309C44.4895 141.767 44.3883 140.18 43.9489 138.693C43.5524 137.351 42.8896 136.122 42.5264 134.768C42.1633 133.415 42.1534 131.814 42.9588 130.729C44.5347 128.606 47.572 129.941 50.0013 129.519C52.5899 129.07 54.5759 126.275 54.783 123.336C54.9902 120.398 53.6292 117.49 51.6032 115.622C49.5773 113.754 46.9644 112.834 44.3576 112.545C41.01 112.175 37.634 112.781 34.5547 114.305C31.4755 115.829 28.7968 118.219 26.7764 121.246C24.7561 124.273 23.4623 127.834 23.0195 131.586C22.5767 135.339 22.9999 139.157 24.2483 142.672C25.3374 145.738 27.1162 148.595 29.6429 150.274C32.1696 151.953 35.5067 152.276 38.025 150.581" fill="#2F2E41"/>
<path d="M141.871 136.964H116.408C114.79 136.964 113.475 134.855 113.475 132.263C113.475 129.671 114.79 127.562 116.408 127.562H141.871C143.488 127.562 144.804 129.671 144.804 132.263C144.804 134.855 143.488 136.964 141.871 136.964Z" fill="white"/>
<path d="M210.31 147.221H115.753C115.149 147.221 114.569 146.95 114.142 146.47C113.715 145.989 113.475 145.336 113.475 144.656C113.475 143.976 113.715 143.324 114.142 142.843C114.569 142.362 115.149 142.092 115.753 142.092H210.31C210.914 142.092 211.494 142.362 211.921 142.843C212.349 143.324 212.589 143.976 212.589 144.656C212.589 145.336 212.349 145.989 211.921 146.47C211.494 146.95 210.914 147.221 210.31 147.221Z" fill="#E6E6E6"/>
<path d="M161.779 157.477H115.753C115.149 157.477 114.569 157.207 114.142 156.726C113.715 156.245 113.475 155.593 113.475 154.913C113.475 154.233 113.715 153.581 114.142 153.1C114.569 152.619 115.149 152.349 115.753 152.349H161.779C162.383 152.349 162.962 152.619 163.39 153.1C163.817 153.581 164.057 154.233 164.057 154.913C164.057 155.593 163.817 156.245 163.39 156.726C162.962 157.207 162.383 157.477 161.779 157.477Z" fill="#E6E6E6"/>
<path d="M300.5 299.145H0.5V300H300.5V299.145Z" fill="#3F3D56"/>
</g>
<defs>
<clipPath id="clip0_203_1301">
<rect width="300" height="300" fill="white" transform="translate(0.5)"/>
</clipPath>
</defs>
</svg>
