<svg xmlns="http://www.w3.org/2000/svg" viewBox="0 0 48 48" id="inspiration"><path fill="#7c7d7d" d="M28 25v-1h4v1a2 2 0 0 1-4 0Z"></path><path fill="#dad7e5" d="M32 24h-4a1 1 0 0 1-1-1v-3h6v3a1 1 0 0 1-1 1Z"></path><path fill="#6fabe6" d="M1 28h8v16H1z"></path><path fill="#82bcf4" d="M9 28c0 14.74-.1 14 0 14a5 5 0 0 1-5-5v-9Z"></path><path fill="#f6ccaf" d="M46.81 39.18C46.19 41 45.4 40.94 36 44.73A29 29 0 0 1 10.79 43L9 42V30c7.44 0 9.9-.39 13.06 1.41 1.52.82-1 .59 11.94.59a3 3 0 0 1 2.21 5c6.55-2 6.67-2.1 7.1-2.14a3.25 3.25 0 0 1 3.5 4.32Z"></path><path fill="#edebf2" d="M5 41a1 1 0 1 1 .71-1.71A1 1 0 0 1 5 41Z"></path><path fill="#fc6" d="M34.32 16.16a5 5 0 0 0-1.32 3.5c0 .48.9.34-6 .34a5.16 5.16 0 0 0-1.44-4 6 6 0 1 1 8.76.13Z"></path><path fill="#ffde76" d="M34.32 16.16A4.85 4.85 0 0 0 33 19h-3.47c-.56 0-.53-.63-.53-.53 0-3.27-3-3.61-3-7.47a5.93 5.93 0 0 1 2.38-4.77c5.86-1.69 10.15 5.55 5.94 9.93Z"></path><path fill="#919191" d="M32 24a4.1 4.1 0 0 1-.18 1.82A2 2 0 0 1 29 24Z"></path><path fill="#edebf2" d="M33 20v3h-1a3 3 0 0 1-3-3Z"></path><path fill="#ffde76" d="M29 2V1a1 1 0 0 1 2 0v1a1 1 0 0 1-2 0zm-6.07 3.93c-.49 0-.64-.23-1.41-1a1 1 0 0 1 1.41-1.42l.71.71a1 1 0 0 1-.71 1.71zM20 13h-1a1 1 0 0 1 0-2h1a1 1 0 0 1 0 2zm2.22 7.78a1 1 0 0 1-.7-1.71l.7-.71a1 1 0 0 1 1.42 1.42c-.64.64-.88 1-1.42 1zM37.07 5.93a1 1 0 0 1-.71-1.71l.71-.71a1 1 0 0 1 1.41 1.42c-.64.64-.88 1-1.41 1zM41 13h-1a1 1 0 0 1 0-2h1a1 1 0 0 1 0 2zm-3.22 7.78c-.5 0-.64-.23-1.42-1a1 1 0 0 1 1.42-1.42l.7.71a1 1 0 0 1-.7 1.71z"></path><path fill="#f8834b" d="m28.7 13.4.55-.73c-1-1.4-1.14-1.16.45-3.27a1 1 0 0 1 1.6 1.2l-.55.73c1 1.4 1.14 1.15-.45 3.27a1 1 0 0 1-1.6-1.2Z"></path><path fill="#ffdec7" d="M46.81 39.18 38 42.73A29 29 0 0 1 12.79 41 3.54 3.54 0 0 1 11 37.94V30c4.83 0 8.29-.53 11.75 1.83.35.24-.38.17 11.07.17A3.15 3.15 0 0 1 37 35.12c-.11 2-1.78 2.2.16 1.61C42 35.23 42.83 35 43 34.94a3.26 3.26 0 0 1 3.81 4.24Z"></path><path fill="#edb996" d="M36.92 37.72C35.39 39.43 34.51 39 23 39a1 1 0 0 1 0-2c12.28 0 11.59.23 12.5-.68a1 1 0 0 1 1.26-.14c-.51 1-1 1 .4.55a1 1 0 0 1-.24.99Z"></path><path d="M47.78 36.75a4.28 4.28 0 0 0-5.44-2.67L38 35.43A4 4 0 0 0 34 31H23.3c-3.8-2.53-7-2-13.3-2v-1a1 1 0 0 0-1-1H1a1 1 0 0 0-1 1v16a1 1 0 0 0 1 1h8a1 1 0 0 0 1-1c0-.35-.09-.33.29-.11a29.82 29.82 0 0 0 26.13 1.77l9-3.65a4.28 4.28 0 0 0 2.36-5.26ZM8 43H2V29h6Zm36.67-2.84-9 3.64a27.78 27.78 0 0 1-24.38-1.65L10 41.42V31c6.59 0 9.05-.43 12.19 1.66.7.47.28.34 11.81.34a2 2 0 0 1 1.53 3.28c-1 1 .09.72-12.53.72a1 1 0 0 0 0 2c11.27 0 12.21.37 13.75-1.1L43 36a2.26 2.26 0 0 1 1.7 4.18Z"></path><path d="M5.56 39.17a1 1 0 1 0-.18 1.75 1 1 0 0 0 .18-1.75zm19.26-22.46c2.59 2.83-.17 6.64 2.18 8a3 3 0 1 0 6 0c2.26-1.32-.24-5.51 2-7.87a7 7 0 1 0-10.22-.14zM32 23h-4v-2h4zm-3 2h2a1 1 0 0 1-2 0zM26.68 8.26a5 5 0 0 1 8.26 2.93c.63 4-2.53 3.9-2.91 7.81H28a6.29 6.29 0 0 0-1.68-3.64 5 5 0 0 1 .36-7.1zM31 2V1a1 1 0 0 0-2 0v1a1 1 0 0 0 2 0zm-8.78 3.64a1 1 0 0 0 1.42-1.42l-.71-.71a1 1 0 0 0-1.41 1.42zM19 13h1a1 1 0 0 0 0-2h-1a1 1 0 0 0 0 2zm3.22 7.78c.5 0 .64-.23 1.42-1a1 1 0 0 0-1.42-1.42l-.7.71a1 1 0 0 0 .7 1.71zM37.07 5.93c.49 0 .64-.23 1.41-1a1 1 0 0 0-1.41-1.42l-.71.71a1 1 0 0 0 .71 1.71zM40 13h1a1 1 0 0 0 0-2h-1a1 1 0 0 0 0 2zm-2.22 5.36a1 1 0 0 0-1.42 1.42c.65.64.88 1 1.42 1a1 1 0 0 0 .7-1.71z"></path><path d="m29.25 12.67-.55.73a1 1 0 0 0 1.6 1.2c1.53-2 1.55-1.79.45-3.27l.55-.73a1 1 0 0 0-1.6-1.2c-1.55 2.07-1.53 1.82-.45 3.27Z"></path></svg>