<svg width="301" height="300" viewBox="0 0 301 300" fill="none" xmlns="http://www.w3.org/2000/svg">
<g clip-path="url(#clip0_21_5383)">
<path d="M258.319 247.88C253.257 264.565 246.747 281.213 238.408 297.059C238.223 297.416 238.035 297.766 237.847 298.121L217.2 290.771C217.319 290.435 217.449 290.058 217.589 289.647C225.917 265.412 276.158 117.75 273.903 88.6357C274.146 91.0189 282.006 169.885 258.319 247.88Z" fill="#E6E6E6"/>
<path d="M242.391 298.477C242.11 298.8 241.822 299.12 241.532 299.434L226.044 293.919C226.253 293.634 226.497 293.298 226.778 292.919C231.365 286.614 245.002 267.739 258.319 247.88C272.63 226.538 286.573 204.062 288.527 194.826C288.135 196.926 275.913 260.857 242.391 298.477Z" fill="#E6E6E6"/>
<path d="M250.133 52.6135C250.127 52.6135 250.122 52.6154 250.116 52.6156V15.2523C250.116 11.2071 248.688 7.32765 246.146 4.46729C243.604 1.60693 240.157 0 236.563 0H132.618C129.024 0 125.576 1.60693 123.035 4.46729C120.493 7.32765 119.065 11.2071 119.065 15.2523V34.4067C118.778 34.4136 118.505 34.5466 118.304 34.7774C118.103 35.0081 117.991 35.3182 117.99 35.6412V45.1285C117.991 45.4515 118.103 45.7616 118.304 45.9923C118.505 46.223 118.778 46.356 119.065 46.3628V56.3018H119.01C118.866 56.3017 118.723 56.3337 118.589 56.3959C118.456 56.4581 118.335 56.5492 118.233 56.6641C118.131 56.779 118.05 56.9154 117.994 57.0655C117.939 57.2156 117.911 57.3765 117.911 57.5389V75.8852C117.911 76.0477 117.939 76.2085 117.994 76.3586C118.05 76.5087 118.131 76.6451 118.233 76.76C118.335 76.8749 118.456 76.966 118.589 77.0282C118.723 77.0904 118.866 77.1224 119.01 77.1224H119.065V84.4089H119.048C118.904 84.4089 118.761 84.4409 118.627 84.5031C118.494 84.5652 118.373 84.6564 118.271 84.7713C118.169 84.8861 118.088 85.0225 118.032 85.1726C117.977 85.3227 117.949 85.4836 117.949 85.6461V104.172C117.949 104.334 117.977 104.495 118.032 104.645C118.088 104.795 118.169 104.932 118.271 105.047C118.373 105.161 118.494 105.253 118.627 105.315C118.761 105.377 118.904 105.409 119.048 105.409H119.065V284.482C119.065 288.527 120.493 292.406 123.035 295.267C125.576 298.127 129.024 299.734 132.618 299.734H236.563C240.157 299.734 243.604 298.127 246.146 295.267C248.688 292.406 250.116 288.527 250.116 284.482V88.9454C250.122 88.9454 250.127 88.9473 250.133 88.9473C250.39 88.9473 250.644 88.8903 250.882 88.7796C251.119 88.6689 251.335 88.5066 251.517 88.3021C251.699 88.0975 251.843 87.8547 251.941 87.5874C252.04 87.3201 252.09 87.0336 252.09 86.7443V54.8166C252.09 54.2323 251.884 53.672 251.517 53.2588C251.15 52.8457 250.652 52.6135 250.133 52.6135Z" fill="#3F3D56"/>
<path d="M242.024 19.5214V280.208C242.023 283.314 240.925 286.292 238.974 288.488C237.022 290.684 234.375 291.918 231.615 291.918H137.567C134.807 291.918 132.16 290.684 130.208 288.488C128.256 286.292 127.159 283.314 127.158 280.208V19.5214C127.158 16.4147 128.254 13.4353 130.206 11.2385C132.158 9.04174 134.806 7.80762 137.567 7.80762H151.64V9.86319C151.641 12.421 152.544 14.8737 154.151 16.6823C155.759 18.4909 157.938 19.5075 160.211 19.5086H208.059C210.329 19.5029 212.504 18.4842 214.107 16.676C215.71 14.8677 216.611 12.4176 216.611 9.86319V7.82898H231.615C234.372 7.82898 237.017 9.06018 238.968 11.2523C240.92 13.4445 242.018 16.4184 242.024 19.5214Z" fill="white"/>
<path d="M89.5168 146.276C88.9607 146.033 88.3641 145.931 87.769 145.976C87.174 146.021 86.595 146.213 86.0728 146.537C85.5506 146.861 85.098 147.311 84.7468 147.853C84.3955 148.395 84.1542 149.018 84.0399 149.677L50.5256 170.185L56.4182 177.648L87.5423 155.169C88.5383 155.312 89.5463 155.039 90.3752 154.401C91.2042 153.764 91.7965 152.806 92.0398 151.71C92.2832 150.613 92.1608 149.455 91.6958 148.453C91.2308 147.452 90.4555 146.677 89.5168 146.276Z" fill="#FFB8B8"/>
<path d="M80.9694 293.829L85.1455 290.789L76.714 271.215L70.5503 275.701L80.9694 293.829Z" fill="#FFB8B8"/>
<path d="M95.7078 289.29L82.5827 298.844L79.3026 293.137L87.5462 287.137C88.8409 286.194 90.4151 285.869 91.9227 286.233C93.4303 286.597 94.7477 287.62 95.5851 289.077L95.7078 289.29Z" fill="#2F2E41"/>
<path d="M34.1118 294.535H39.0854L41.4523 272.946H34.1118V294.535Z" fill="#FFB8B8"/>
<path d="M48.6775 299.733H33.0461V292.937H42.8639C43.6273 292.937 44.3833 293.106 45.0887 293.435C45.794 293.764 46.4349 294.246 46.9747 294.853C47.5146 295.461 47.9428 296.182 48.235 296.976C48.5271 297.769 48.6775 298.62 48.6775 299.479V299.733Z" fill="#2F2E41"/>
<path d="M148.222 42.3047H137.968C137.717 42.3047 137.475 42.1922 137.297 41.9918C137.119 41.7915 137.019 41.5197 137.019 41.2364C137.019 40.953 137.119 40.6812 137.297 40.4809C137.475 40.2805 137.717 40.168 137.968 40.168H148.222C148.473 40.168 148.715 40.2805 148.893 40.4809C149.071 40.6812 149.171 40.953 149.171 41.2364C149.171 41.5197 149.071 41.7915 148.893 41.9918C148.715 42.1922 148.473 42.3047 148.222 42.3047Z" fill="#3F3D56"/>
<path d="M148.222 45.296H137.968C137.717 45.296 137.475 45.1834 137.297 44.983C137.119 44.7827 137.019 44.5109 137.019 44.2276C137.019 43.9442 137.119 43.6725 137.297 43.4721C137.475 43.2717 137.717 43.1592 137.968 43.1592H148.222C148.473 43.1592 148.715 43.2717 148.893 43.4721C149.071 43.6725 149.171 43.9442 149.171 44.2276C149.171 44.5109 149.071 44.7827 148.893 44.983C148.715 45.1834 148.473 45.296 148.222 45.296Z" fill="#3F3D56"/>
<path d="M148.222 48.2881H137.968C137.717 48.2881 137.475 48.1756 137.297 47.9752C137.119 47.7749 137.019 47.5031 137.019 47.2198C137.019 46.9364 137.119 46.6646 137.297 46.4643C137.475 46.2639 137.717 46.1514 137.968 46.1514H148.222C148.473 46.1514 148.715 46.2639 148.893 46.4643C149.071 46.6646 149.171 46.9364 149.171 47.2198C149.171 47.5031 149.071 47.7749 148.893 47.9752C148.715 48.1756 148.473 48.2881 148.222 48.2881Z" fill="#3F3D56"/>
<path d="M227.699 45.3175H227.354L227.221 45.1936C227.657 44.608 227.897 43.8681 227.897 43.1038C227.894 42.4749 227.725 41.8612 227.412 41.3403C227.099 40.8193 226.656 40.4144 226.139 40.1769C225.621 39.9394 225.053 39.8799 224.505 40.0059C223.958 40.1319 223.456 40.4377 223.063 40.8848C222.67 41.3318 222.404 41.9 222.297 42.5174C222.191 43.1348 222.25 43.7738 222.467 44.3534C222.684 44.9331 223.048 45.4275 223.514 45.774C223.981 46.1206 224.528 46.3038 225.087 46.3004C225.764 46.295 226.418 46.0263 226.94 45.5397L227.069 45.6636V46.0568L229.249 48.5141L229.902 47.7791L227.699 45.3175ZM225.087 45.3175C224.698 45.3192 224.317 45.191 223.992 44.9492C223.668 44.7073 223.415 44.3627 223.265 43.9589C223.114 43.555 223.074 43.1101 223.148 42.6803C223.223 42.2506 223.409 41.8553 223.683 41.5445C223.957 41.2338 224.306 41.0214 224.688 40.9343C225.069 40.8473 225.465 40.8894 225.825 41.0553C226.185 41.2213 226.493 41.5037 226.71 41.8668C226.928 42.2299 227.045 42.6574 227.046 43.0952L227.046 43.1038C227.048 43.3928 226.998 43.6793 226.902 43.947C226.805 44.2147 226.662 44.4582 226.481 44.6638C226.301 44.8693 226.086 45.0329 225.849 45.145C225.613 45.2572 225.359 45.3158 225.102 45.3175C225.097 45.3175 225.092 45.3175 225.087 45.3175Z" fill="#3F3D56"/>
<path d="M169.11 81.6215H150.69C149.582 81.6215 148.52 81.1263 147.736 80.2447C146.953 79.3631 146.513 78.1674 146.513 76.9206C146.513 75.6739 146.953 74.4782 147.736 73.5966C148.52 72.715 149.582 72.2197 150.69 72.2197H169.11C170.218 72.2197 171.28 72.715 172.063 73.5966C172.847 74.4782 173.287 75.6739 173.287 76.9206C173.287 78.1674 172.847 79.3631 172.063 80.2447C171.28 81.1263 170.218 81.6215 169.11 81.6215Z" fill="#E57700"/>
<path d="M225.5 91.8783H148.791C148.187 91.8783 147.607 91.6081 147.18 91.1272C146.753 90.6464 146.513 89.9942 146.513 89.3141C146.513 88.6341 146.753 87.9819 147.18 87.501C147.607 87.0201 148.187 86.75 148.791 86.75H225.5C226.104 86.75 226.684 87.0201 227.111 87.501C227.538 87.9819 227.779 88.6341 227.779 89.3141C227.779 89.9942 227.538 90.6464 227.111 91.1272C226.684 91.6081 226.104 91.8783 225.5 91.8783Z" fill="#E6E6E6"/>
<path d="M176.968 102.134H148.791C148.187 102.134 147.607 101.864 147.18 101.383C146.753 100.902 146.513 100.25 146.513 99.57C146.513 98.8899 146.753 98.2377 147.18 97.7569C147.607 97.276 148.187 97.0059 148.791 97.0059H176.968C177.573 97.0059 178.152 97.276 178.58 97.7569C179.007 98.2377 179.247 98.8899 179.247 99.57C179.247 100.25 179.007 100.902 178.58 101.383C178.152 101.864 177.573 102.134 176.968 102.134Z" fill="#E6E6E6"/>
<path d="M169.11 195.298H150.69C149.582 195.298 148.52 194.803 147.736 193.921C146.953 193.04 146.513 191.844 146.513 190.597C146.513 189.351 146.953 188.155 147.736 187.273C148.52 186.392 149.582 185.896 150.69 185.896H169.11C170.218 185.896 171.28 186.392 172.063 187.273C172.847 188.155 173.287 189.351 173.287 190.597C173.287 191.844 172.847 193.04 172.063 193.921C171.28 194.803 170.218 195.298 169.11 195.298Z" fill="#E57700"/>
<path d="M225.5 205.554H148.791C148.187 205.554 147.607 205.284 147.18 204.803C146.753 204.322 146.513 203.67 146.513 202.99C146.513 202.31 146.753 201.658 147.18 201.177C147.607 200.696 148.187 200.426 148.791 200.426H225.5C226.104 200.426 226.684 200.696 227.111 201.177C227.538 201.658 227.779 202.31 227.779 202.99C227.779 203.67 227.538 204.322 227.111 204.803C226.684 205.284 226.104 205.554 225.5 205.554Z" fill="#E6E6E6"/>
<path d="M176.968 215.811H148.791C148.187 215.811 147.607 215.541 147.18 215.06C146.753 214.579 146.513 213.927 146.513 213.247C146.513 212.567 146.753 211.915 147.18 211.434C147.607 210.953 148.187 210.683 148.791 210.683H176.968C177.573 210.683 178.152 210.953 178.58 211.434C179.007 211.915 179.247 212.567 179.247 213.247C179.247 213.927 179.007 214.579 178.58 215.06C178.152 215.541 177.573 215.811 176.968 215.811Z" fill="#E6E6E6"/>
<path d="M169.11 247.863H150.69C149.582 247.863 148.52 247.367 147.736 246.486C146.953 245.604 146.513 244.409 146.513 243.162C146.513 241.915 146.953 240.719 147.736 239.838C148.52 238.956 149.582 238.461 150.69 238.461H169.11C170.218 238.461 171.28 238.956 172.063 239.838C172.847 240.719 173.287 241.915 173.287 243.162C173.287 244.409 172.847 245.604 172.063 246.486C171.28 247.367 170.218 247.863 169.11 247.863Z" fill="#E57700"/>
<path d="M225.5 258.119H148.791C148.187 258.119 147.607 257.849 147.18 257.368C146.753 256.888 146.513 256.235 146.513 255.555C146.513 254.875 146.753 254.223 147.18 253.742C147.607 253.261 148.187 252.991 148.791 252.991H225.5C226.104 252.991 226.684 253.261 227.111 253.742C227.538 254.223 227.779 254.875 227.779 255.555C227.779 256.235 227.538 256.888 227.111 257.368C226.684 257.849 226.104 258.119 225.5 258.119Z" fill="#E6E6E6"/>
<path d="M176.968 268.375H148.791C148.187 268.375 147.607 268.105 147.18 267.624C146.753 267.143 146.513 266.491 146.513 265.811C146.513 265.131 146.753 264.479 147.18 263.998C147.607 263.517 148.187 263.247 148.791 263.247H176.968C177.573 263.247 178.152 263.517 178.58 263.998C179.007 264.479 179.247 265.131 179.247 265.811C179.247 266.491 179.007 267.143 178.58 267.624C178.152 268.105 177.573 268.375 176.968 268.375Z" fill="#E6E6E6"/>
<path d="M236.323 168.589H89.7405C88.8848 168.587 88.0643 168.204 87.4592 167.523C86.8541 166.842 86.5137 165.919 86.5127 164.956V120.084C86.5137 119.121 86.854 118.197 87.4592 117.516C88.0643 116.835 88.8848 116.452 89.7405 116.451H236.323C237.179 116.452 237.999 116.835 238.604 117.516C239.209 118.197 239.55 119.121 239.551 120.084V164.956C239.55 165.919 239.209 166.842 238.604 167.523C237.999 168.204 237.179 168.587 236.323 168.589Z" fill="#00A7E1"/>
<path d="M37.0437 221.974C38.445 233.038 31.0247 282.056 31.8488 282.051L42.5045 281.987C42.8842 281.167 47.7753 254.718 49.3095 250.474C51.4513 244.585 53.612 238.624 54.4551 232.333C55.2488 226.427 54.8576 220.41 54.3412 214.465C54.3652 214.288 54.3515 214.108 54.3012 213.938C54.2509 213.768 54.1655 213.614 54.052 213.489C53.9385 213.364 53.8001 213.271 53.6484 213.218C53.4966 213.165 53.3358 213.153 53.1791 213.183L38.8817 212.354C35.9348 212.183 35.2361 211.457 35.6842 214.713C35.9956 217.145 36.7323 219.512 37.0437 221.974Z" fill="#2F2E41"/>
<path d="M39.8539 195.071C36.9488 199.772 33.9032 205.183 34.8678 210.811C35.6007 215.084 38.4944 218.396 41.2247 221.495C52.1387 233.828 73.6589 288.248 73.6589 288.248C84.0444 280.769 73.4115 288.461 83.9501 280.555C83.0159 280.474 61.7918 194.614 60.0336 194.499C52.921 193.969 46.7842 193.187 39.8539 195.071Z" fill="#2F2E41"/>
<path d="M51.3444 150.328C49.8688 148.847 39.4992 144.28 39.4992 144.28C39.3086 144.252 39.1151 144.258 38.9263 144.299C38.3362 144.467 38.0669 145.292 38.193 145.96C38.319 146.627 37.2849 157.594 37.0185 162.581C36.5515 171.285 41.1063 191.002 41.0662 191.605C40.9101 193.755 40.0735 195.77 38.7086 197.285C39.0633 197.781 61.594 198.774 63.1266 199.361C63.436 198.919 61.382 167.646 61.2875 165.879C61.13 163.197 53.2924 152.359 51.3444 150.328Z" fill="#E6E6E6"/>
<path d="M35.2745 218.187C35.8084 217.888 36.2776 217.461 36.6489 216.936C37.0203 216.41 37.2849 215.8 37.424 215.147C37.5631 214.495 37.5733 213.816 37.454 213.158C37.3346 212.5 37.0886 211.88 36.7333 211.341L46.2395 152.135L37.3686 152.004L30.767 210.551C30.002 211.283 29.502 212.305 29.3619 213.424C29.2218 214.543 29.4513 215.681 30.0069 216.622C30.5625 217.563 31.4056 218.242 32.3764 218.531C33.3473 218.819 34.3784 218.697 35.2745 218.187Z" fill="#FFB8B8"/>
<path d="M35.198 156.528C34.828 156.558 34.4596 156.45 34.1499 156.221C33.6221 155.712 37.9284 147.93 38.779 147.814C41.5474 147.455 44.3955 147.336 47.0803 148.178C49.7651 149.02 52.2904 150.934 53.4904 153.768C53.9917 154.947 50.3575 160.883 48.7056 160.011C46.7271 158.968 37.8031 156.601 35.198 156.528Z" fill="#E6E6E6"/>
<path d="M44.9692 143.642C50.4722 143.642 54.9333 138.622 54.9333 132.429C54.9333 126.236 50.4722 121.216 44.9692 121.216C39.4662 121.216 35.0051 126.236 35.0051 132.429C35.0051 138.622 39.4662 143.642 44.9692 143.642Z" fill="#FFB8B8"/>
<path d="M35.1821 150.969C36.5668 151.132 37.9656 150.901 39.2508 150.299C40.5359 149.696 41.6662 148.741 42.5383 147.519C43.4104 146.298 43.9965 144.85 44.2429 143.308C44.4893 141.766 44.3882 140.179 43.9488 138.693C43.5523 137.351 42.8895 136.121 42.5263 134.768C42.1632 133.414 42.1533 131.814 42.9587 130.729C44.5345 128.606 47.5719 129.941 50.0012 129.519C52.5898 129.069 54.5758 126.274 54.7829 123.336C54.99 120.398 53.6291 117.49 51.6031 115.622C49.5772 113.753 46.9642 112.833 44.3575 112.545C41.0098 112.175 37.6338 112.781 34.5546 114.305C31.4754 115.829 28.7966 118.219 26.7763 121.246C24.756 124.272 23.4622 127.834 23.0194 131.586C22.5766 135.339 22.9998 139.156 24.2482 142.672C25.3372 145.738 27.1161 148.594 29.6428 150.274C32.1695 151.953 35.5066 152.276 38.0248 150.58" fill="#2F2E41"/>
<path d="M141.871 136.964H116.407C114.79 136.964 113.475 134.856 113.475 132.263C113.475 129.671 114.79 127.562 116.407 127.562H141.871C143.488 127.562 144.804 129.671 144.804 132.263C144.804 134.856 143.488 136.964 141.871 136.964Z" fill="white"/>
<path d="M210.31 147.22H115.753C115.149 147.22 114.569 146.95 114.142 146.469C113.715 145.988 113.475 145.336 113.475 144.656C113.475 143.976 113.715 143.324 114.142 142.843C114.569 142.362 115.149 142.092 115.753 142.092H210.31C210.914 142.092 211.494 142.362 211.921 142.843C212.348 143.324 212.589 143.976 212.589 144.656C212.589 145.336 212.348 145.988 211.921 146.469C211.494 146.95 210.914 147.22 210.31 147.22Z" fill="#E6E6E6"/>
<path d="M161.778 157.477H115.753C115.149 157.477 114.569 157.207 114.142 156.726C113.715 156.245 113.475 155.593 113.475 154.913C113.475 154.233 113.715 153.581 114.142 153.1C114.569 152.619 115.149 152.349 115.753 152.349H161.778C162.383 152.349 162.962 152.619 163.39 153.1C163.817 153.581 164.057 154.233 164.057 154.913C164.057 155.593 163.817 156.245 163.39 156.726C162.962 157.207 162.383 157.477 161.778 157.477Z" fill="#E6E6E6"/>
<path d="M300.5 299.146H0.5V300H300.5V299.146Z" fill="#3F3D56"/>
</g>
<defs>
<clipPath id="clip0_21_5383">
<rect width="300" height="300" fill="white" transform="translate(0.5)"/>
</clipPath>
</defs>
</svg>
