<svg xmlns="http://www.w3.org/2000/svg" enable-background="new 0 0 1024 1024" viewBox="0 0 1024 1024" id="table-reservation"><g><polygon points="522 522 768 522 768 502 256 502 256 522 502 522 502 886 416 886 416 906 608 906 608 886 522 886"></polygon><path d="M886 320v278H719.15c-31.51 0-57.15 25.64-57.15 57.15V688v0 0 208h20V698h204v198h20V688v-80V320H886zM682 655.15c0-20.48 16.67-37.15 37.15-37.15H886v60H682V655.15zM304.85 598H138V320h-20v288 80 208h20V698h204v198h20V688v0 0-32.85C362 623.64 336.36 598 304.85 598zM304.85 618c20.48 0 37.15 16.67 37.15 37.15V678H138v-60H304.85zM512 458c93.74 0 170-76.26 170-170s-76.26-170-170-170-170 76.26-170 170S418.26 458 512 458zM512 138c82.71 0 150 67.29 150 150s-67.29 150-150 150-150-67.29-150-150S429.29 138 512 138z"></path><path d="M496,346c2.56,0,5.12-0.98,7.07-2.93l96-96l-14.14-14.14L496,321.86l-40.93-40.93l-14.14,14.14l48,48
		C490.88,345.02,493.44,346,496,346z"></path></g></svg>