<svg width="20" height="20" viewBox="0 0 20 20" fill="none" xmlns="http://www.w3.org/2000/svg">
<path d="M10 0C4.477 0 0 4.477 0 10C0 15.523 4.477 20 10 20C15.523 20 20 15.523 20 10C20 4.477 15.523 0 10 0ZM6.244 2.373L9.252 4.173V6.366L6.461 8.394L4.417 7.687L3.83 4.153C4.52316 3.42168 5.34047 2.81903 6.244 2.373ZM1.621 11.439L3.948 9.112L5.988 9.817L7.07 13.15L6.1 14.725L2.807 14.531C2.21155 13.5887 1.80847 12.5378 1.621 11.439ZM8.53 18.373L7.346 15.564L8.309 13.997H11.681L12.593 15.578L11.553 18.358C10.5542 18.5424 9.53057 18.5475 8.53 18.373ZM16.892 14.976L13.868 14.786L12.93 13.162L14.017 9.817L16.03 9.121L18.342 11.641C18.1062 12.8446 17.6114 13.9826 16.892 14.976ZM16.172 4.156L15.583 7.689L13.543 8.394L10.752 6.366V4.172L13.754 2.372C14.6592 2.81886 15.4779 3.4229 16.172 4.156Z" fill="#E57700"/>
</svg>
