<svg width="20" height="20" viewBox="0 0 20 20" fill="none" xmlns="http://www.w3.org/2000/svg">
<path fill-rule="evenodd" clip-rule="evenodd" d="M10.7529 13.3301C11.5809 12.8502 12.3046 12.2095 12.8814 11.4458C12.6947 11.1576 12.5625 10.8375 12.4914 10.5015L12.4643 10.3758C12.3858 10.0172 12.2023 9.69014 11.9372 9.43623C11.672 9.18232 11.3374 9.01309 10.9757 8.9501C8.01571 8.43581 8.01571 4.18724 10.9757 3.67153C11.3251 3.61085 11.6496 3.45088 11.9106 3.21073C12.1715 2.97058 12.3578 2.6604 12.4471 2.31724C11.7511 1.55876 10.8993 0.959703 9.95018 0.561095C9.00104 0.162487 7.97695 -0.0262481 6.94806 0.0078187C5.91917 0.0418855 4.90981 0.297949 3.98911 0.758468C3.06841 1.21899 2.25813 1.87308 1.61378 2.67594C0.969436 3.4788 0.506243 4.41145 0.255936 5.41C0.00562889 6.40856 -0.0258776 7.44942 0.163575 8.46128C0.353027 9.47315 0.758962 10.4321 1.35357 11.2725C1.94818 12.1128 2.71741 12.8147 3.60857 13.3301V15.0001C3.60857 15.379 3.75908 15.7423 4.02699 16.0103C4.2949 16.2782 4.65826 16.4287 5.03714 16.4287H9.32286C9.70174 16.4287 10.0651 16.2782 10.333 16.0103C10.6009 15.7423 10.7514 15.379 10.7514 15.0001L10.7529 13.3301ZM3.61 18.9287C3.61 18.6445 3.72288 18.372 3.92381 18.1711C4.12475 17.9701 4.39727 17.8572 4.68143 17.8572H9.68143C9.96559 17.8572 10.2381 17.9701 10.439 18.1711C10.64 18.372 10.7529 18.6445 10.7529 18.9287C10.7529 19.2128 10.64 19.4854 10.439 19.6863C10.2381 19.8872 9.96559 20.0001 9.68143 20.0001H4.68143C4.39727 20.0001 4.12475 19.8872 3.92381 19.6863C3.72288 19.4854 3.61 19.2128 3.61 18.9287ZM14.01 2.45296C14.2714 1.25867 15.9714 1.25153 16.2429 2.44296L16.2557 2.5001L16.2814 2.61153C16.4348 3.26449 16.7767 3.85798 17.2646 4.31821C17.7525 4.77845 18.3649 5.08512 19.0257 5.2001C20.2714 5.41724 20.2714 7.20581 19.0257 7.42296C18.3612 7.53862 17.7456 7.84806 17.2563 8.31242C16.7671 8.77678 16.4259 9.37535 16.2757 10.033L16.2429 10.1787C15.9714 11.3715 14.27 11.3644 14.0071 10.1687L13.98 10.0444C13.836 9.38458 13.4987 8.78261 13.0112 8.31523C12.5238 7.84785 11.9081 7.53623 11.2429 7.4201C9.99857 7.20438 9.99857 5.41867 11.2429 5.20153C11.9058 5.08624 12.5196 4.77682 13.0066 4.31246C13.4936 3.8481 13.8319 3.24968 13.9786 2.59296L14 2.5001L14.01 2.45296Z" fill="#E57700"/>
</svg>
