<svg width="14" height="13" viewBox="0 0 14 13" fill="none" xmlns="http://www.w3.org/2000/svg">
<path fill-rule="evenodd" clip-rule="evenodd" d="M2.20267 12.4293C2.4658 12.4767 2.73264 12.5003 3 12.5C3.84498 12.5011 4.67306 12.2633 5.38867 11.814C5.90467 11.9353 6.44467 12 7 12C10.548 12 13.5 9.35333 13.5 6C13.5 2.64667 10.548 0 7 0C3.452 0 0.5 2.64667 0.5 6C0.5 7.606 1.18333 9.058 2.28267 10.128C2.43733 10.2787 2.46733 10.4133 2.452 10.49C2.36961 10.9047 2.18284 11.2916 1.90933 11.614C1.85255 11.681 1.81444 11.7618 1.79882 11.8483C1.7832 11.9347 1.79064 12.0238 1.82038 12.1064C1.85012 12.1891 1.90111 12.2625 1.96822 12.3192C2.03533 12.3758 2.1162 12.4138 2.20267 12.4293ZM4.5 5.25C4.30109 5.25 4.11032 5.32902 3.96967 5.46967C3.82902 5.61032 3.75 5.80109 3.75 6C3.75 6.19891 3.82902 6.38968 3.96967 6.53033C4.11032 6.67098 4.30109 6.75 4.5 6.75C4.69891 6.75 4.88968 6.67098 5.03033 6.53033C5.17098 6.38968 5.25 6.19891 5.25 6C5.25 5.80109 5.17098 5.61032 5.03033 5.46967C4.88968 5.32902 4.69891 5.25 4.5 5.25ZM6.25 6C6.25 5.80109 6.32902 5.61032 6.46967 5.46967C6.61032 5.32902 6.80109 5.25 7 5.25C7.19891 5.25 7.38968 5.32902 7.53033 5.46967C7.67098 5.61032 7.75 5.80109 7.75 6C7.75 6.19891 7.67098 6.38968 7.53033 6.53033C7.38968 6.67098 7.19891 6.75 7 6.75C6.80109 6.75 6.61032 6.67098 6.46967 6.53033C6.32902 6.38968 6.25 6.19891 6.25 6ZM9.5 5.25C9.30109 5.25 9.11032 5.32902 8.96967 5.46967C8.82902 5.61032 8.75 5.80109 8.75 6C8.75 6.19891 8.82902 6.38968 8.96967 6.53033C9.11032 6.67098 9.30109 6.75 9.5 6.75C9.69891 6.75 9.88968 6.67098 10.0303 6.53033C10.171 6.38968 10.25 6.19891 10.25 6C10.25 5.80109 10.171 5.61032 10.0303 5.46967C9.88968 5.32902 9.69891 5.25 9.5 5.25Z" fill="white"/>
</svg>
