<svg width="37" height="39" viewBox="0 0 37 39" fill="none" xmlns="http://www.w3.org/2000/svg">
<rect x="1" y="1" width="35" height="36.0278" rx="17.5" stroke="#F2F2F2" stroke-width="2"/>
<path d="M16.1665 19.5833C15.0815 19.5833 14.1773 20.33 13.9148 21.3333H12.6665V22.5H13.9148C14.1773 23.5033 15.0815 24.25 16.1665 24.25C17.2515 24.25 18.1557 23.5033 18.4182 22.5H24.3332V21.3333H18.4182C18.1557 20.33 17.2515 19.5833 16.1665 19.5833ZM16.1665 23.0833C15.5248 23.0833 14.9998 22.5583 14.9998 21.9167C14.9998 21.275 15.5248 20.75 16.1665 20.75C16.8082 20.75 17.3332 21.275 17.3332 21.9167C17.3332 22.5583 16.8082 23.0833 16.1665 23.0833ZM23.0848 15.5C22.8223 14.4967 21.9182 13.75 20.8332 13.75C19.7482 13.75 18.844 14.4967 18.5815 15.5H12.6665V16.6667H18.5815C18.844 17.67 19.7482 18.4167 20.8332 18.4167C21.9182 18.4167 22.8223 17.67 23.0848 16.6667H24.3332V15.5H23.0848ZM20.8332 17.25C20.1915 17.25 19.6665 16.725 19.6665 16.0833C19.6665 15.4417 20.1915 14.9167 20.8332 14.9167C21.4748 14.9167 21.9998 15.4417 21.9998 16.0833C21.9998 16.725 21.4748 17.25 20.8332 17.25Z" fill="#212121"/>
</svg>
