<svg width="30" height="30" viewBox="0 0 30 30" fill="none" xmlns="http://www.w3.org/2000/svg">
<circle cx="15" cy="15" r="15" fill="#E57700"/>
<path fill-rule="evenodd" clip-rule="evenodd" d="M12.4084 7.04695C13.2082 7.01013 13.4632 7.00195 15.5005 7.00195C17.5378 7.00195 17.7928 7.01082 18.5919 7.04695C19.3909 7.08309 19.9364 7.21059 20.4137 7.39536C20.9134 7.58423 21.3669 7.87945 21.7419 8.26127C22.1237 8.63559 22.4182 9.08832 22.6064 9.58877C22.7919 10.066 22.9187 10.6115 22.9555 11.4092C22.9923 12.2104 23.0005 12.4654 23.0005 14.502C23.0005 16.5392 22.9916 16.7942 22.9555 17.594C22.9194 18.3917 22.7919 18.9372 22.6064 19.4145C22.4182 19.915 22.1232 20.3685 21.7419 20.7433C21.3669 21.1251 20.9134 21.4197 20.4137 21.6079C19.9364 21.7933 19.3909 21.9201 18.5932 21.957C17.7928 21.9938 17.5378 22.002 15.5005 22.002C13.4632 22.002 13.2082 21.9931 12.4084 21.957C11.6107 21.9208 11.0653 21.7933 10.588 21.6079C10.0875 21.4197 9.634 21.1246 9.25912 20.7433C8.87757 20.3688 8.58229 19.9155 8.3939 19.4151C8.20912 18.9379 8.08231 18.3924 8.04549 17.5947C8.00867 16.7935 8.00049 16.5385 8.00049 14.502C8.00049 12.4647 8.00935 12.2097 8.04549 11.4106C8.08162 10.6115 8.20912 10.066 8.3939 9.58877C8.58257 9.08837 8.87807 8.63512 9.25981 8.26059C9.63415 7.87911 10.0872 7.58385 10.5873 7.39536C11.0646 7.21059 11.61 7.08377 12.4078 7.04695H12.4084ZM18.5312 8.39695C17.7403 8.36082 17.503 8.35332 15.5005 8.35332C13.498 8.35332 13.2607 8.36082 12.4698 8.39695C11.7382 8.43036 11.3414 8.55241 11.0769 8.65536C10.7271 8.79173 10.4769 8.95332 10.2144 9.21582C9.96552 9.4579 9.77402 9.7526 9.6539 10.0783C9.55094 10.3429 9.4289 10.7397 9.39549 11.4713C9.35935 12.2622 9.35185 12.4995 9.35185 14.502C9.35185 16.5045 9.35935 16.7417 9.39549 17.5326C9.4289 18.2642 9.55094 18.661 9.6539 18.9256C9.7739 19.2508 9.96549 19.546 10.2144 19.7881C10.4564 20.037 10.7516 20.2285 11.0769 20.3485C11.3414 20.4515 11.7382 20.5735 12.4698 20.607C13.2607 20.6431 13.4973 20.6506 15.5005 20.6506C17.5037 20.6506 17.7403 20.6431 18.5312 20.607C19.2628 20.5735 19.6596 20.4515 19.9241 20.3485C20.2739 20.2122 20.5241 20.0506 20.7866 19.7881C21.0355 19.546 21.2271 19.2508 21.3471 18.9256C21.45 18.661 21.5721 18.2642 21.6055 17.5326C21.6416 16.7417 21.6491 16.5045 21.6491 14.502C21.6491 12.4995 21.6416 12.2622 21.6055 11.4713C21.5721 10.7397 21.45 10.3429 21.3471 10.0783C21.2107 9.72854 21.0491 9.47832 20.7866 9.21582C20.5445 8.967 20.2498 8.77551 19.9241 8.65536C19.6596 8.55241 19.2628 8.43036 18.5312 8.39695V8.39695ZM14.5425 16.814C15.0775 17.0367 15.6732 17.0668 16.2279 16.899C16.7826 16.7313 17.2619 16.3762 17.5839 15.8944C17.9058 15.4126 18.0505 14.8339 17.9932 14.2573C17.936 13.6806 17.6803 13.1417 17.2698 12.7326C17.0082 12.4711 16.6918 12.2709 16.3434 12.1464C15.9951 12.0218 15.6235 11.9761 15.2554 12.0124C14.8872 12.0487 14.5317 12.1662 14.2144 12.3564C13.8972 12.5466 13.626 12.8047 13.4205 13.1123C13.2149 13.4199 13.0802 13.7692 13.0258 14.1351C12.9715 14.501 12.999 14.8744 13.1063 15.2284C13.2136 15.5825 13.3981 15.9083 13.6464 16.1824C13.8948 16.4566 14.2008 16.6723 14.5425 16.814ZM12.7746 11.776C13.1326 11.4181 13.5575 11.1341 14.0252 10.9404C14.4929 10.7466 14.9942 10.6469 15.5005 10.6469C16.0067 10.6469 16.508 10.7466 16.9757 10.9404C17.4435 11.1341 17.8684 11.4181 18.2264 11.776C18.5844 12.134 18.8683 12.559 19.0621 13.0267C19.2558 13.4944 19.3555 13.9957 19.3555 14.502C19.3555 15.0082 19.2558 15.5095 19.0621 15.9772C18.8683 16.4449 18.5844 16.8699 18.2264 17.2279C17.5034 17.9508 16.5229 18.357 15.5005 18.357C14.4781 18.357 13.4975 17.9508 12.7746 17.2279C12.0516 16.5049 11.6455 15.5244 11.6455 14.502C11.6455 13.4795 12.0516 12.499 12.7746 11.776V11.776ZM20.2105 11.221C20.2992 11.1374 20.3702 11.0367 20.4193 10.9251C20.4685 10.8135 20.4947 10.6932 20.4965 10.5712C20.4982 10.4493 20.4755 10.3282 20.4297 10.2152C20.3838 10.1022 20.3158 9.99957 20.2296 9.91334C20.1433 9.82711 20.0407 9.75906 19.9277 9.71322C19.8147 9.66737 19.6936 9.64466 19.5717 9.64644C19.4497 9.64822 19.3294 9.67444 19.2178 9.72356C19.1062 9.77268 19.0055 9.8437 18.9219 9.93241C18.7591 10.1049 18.67 10.3341 18.6735 10.5712C18.6769 10.8084 18.7727 11.0348 18.9404 11.2025C19.1081 11.3702 19.3345 11.466 19.5717 11.4694C19.8088 11.4729 20.038 11.3838 20.2105 11.221V11.221Z" fill="white"/>
</svg>
