<svg width="22" height="23" viewBox="0 0 22 23" fill="none" xmlns="http://www.w3.org/2000/svg">
<path d="M18.5 12.4395V9.75C18.4993 8.57619 18.221 7.41919 17.6877 6.3735L21.5 2.5605L20.4395 1.5L0.5 21.4395L1.5605 22.5L6.0605 18H7.25V18.75C7.25 19.7446 7.64509 20.6984 8.34835 21.4016C9.05161 22.1049 10.0054 22.5 11 22.5C11.9946 22.5 12.9484 22.1049 13.6517 21.4016C14.3549 20.6984 14.75 19.7446 14.75 18.75V18H20C20.1989 18 20.3897 17.921 20.5303 17.7803C20.671 17.6397 20.75 17.4489 20.75 17.25V15C20.75 14.8011 20.6709 14.6104 20.5303 14.4697L18.5 12.4395ZM13.25 18.75C13.25 19.3467 13.0129 19.919 12.591 20.341C12.169 20.7629 11.5967 21 11 21C10.4033 21 9.83097 20.7629 9.40901 20.341C8.98705 19.919 8.75 19.3467 8.75 18.75V18H13.25V18.75ZM19.25 16.5H7.5605L16.559 7.5015C16.85 8.21543 16.9998 8.97904 17 9.75V12.75C17 12.9489 17.0791 13.1396 17.2197 13.2803L19.25 15.3105V16.5ZM4.78025 13.2803C4.92091 13.1396 4.99996 12.9489 5 12.75V9.75C5.00198 8.15931 5.63476 6.63434 6.75955 5.50955C7.88434 4.38476 9.40931 3.75198 11 3.75C12.3616 3.75063 13.6817 4.21873 14.7395 5.076L15.809 4.0065C14.6604 3.03721 13.2454 2.43798 11.75 2.2875V0.75H10.25V2.2875C8.40093 2.4757 6.68732 3.34284 5.44053 4.72124C4.19373 6.09964 3.50233 7.89138 3.5 9.75V12.4395L1.25 14.6895L2.3105 15.75L4.78025 13.2803Z" fill="#2E2E2E"/>
</svg>
